<svg width="39" height="51" viewBox="0 0 39 51" fill="none" xmlns="http://www.w3.org/2000/svg">
<path fill-rule="evenodd" clip-rule="evenodd" d="M37.4648 49.8002C39.1792 43.9939 41.4868 36.1784 31.2387 28.9086C29.1995 27.462 27.0557 26.0381 24.9027 24.6082C14.4896 17.692 3.86174 10.6333 3.81102 0.168956C1.5849 3.46804 -1.53096 13.377 8.12991 21.3008C12.4058 24.8078 16.9824 27.2748 21.2103 29.5538C30.5037 34.5634 38.1127 38.6649 37.141 50.9083C37.244 50.5479 37.3531 50.1783 37.4648 49.8002ZM34.8175 44.5945C33.6732 40.1217 29.641 35.0896 17.9522 31.5235C6.90329 28.1526 3.06913 24.2534 0.889316 22.0367C0.599416 21.7418 0.338777 21.4768 0.09432 21.2467C1.34137 25.7871 5.00258 32.8585 15.1213 35.1377C27.6817 37.9668 31.1589 39.0921 34.8175 44.5945ZM23.365 40.0777C31.7469 40.5459 34.5734 45.8346 35.3689 48.1012C32.2613 45.0545 30.3781 43.7917 22.4665 43.6254C16.1372 43.4923 10.5988 39.073 8.71042 36.8796C13.3222 38.8951 15.5662 39.642 23.365 40.0777ZM35.6922 50.4834C35.0311 49.1532 32.4888 46.5751 27.603 46.7726C26.281 46.8261 25.4168 46.896 24.7659 46.9486C23.3797 47.0606 22.9615 47.0945 21.151 46.7247C22.1342 47.9205 24.9209 50.14 28.2021 49.4514C32.1092 48.6316 32.6086 48.8897 35.277 50.2691C35.4098 50.3377 35.5479 50.4092 35.6922 50.4834Z" fill="url(#paint0_linear_5301_89)" fill-opacity="0.75"/>
<path fill-rule="evenodd" clip-rule="evenodd" d="M37.4648 49.8002C39.1792 43.9939 41.4868 36.1784 31.2387 28.9086C29.1995 27.462 27.0557 26.0381 24.9027 24.6082C14.4896 17.692 3.86174 10.6333 3.81102 0.168956C1.5849 3.46804 -1.53096 13.377 8.12991 21.3008C12.4058 24.8078 16.9824 27.2748 21.2103 29.5538C30.5037 34.5634 38.1127 38.6649 37.141 50.9083C37.244 50.5479 37.3531 50.1783 37.4648 49.8002ZM34.8175 44.5945C33.6732 40.1217 29.641 35.0896 17.9522 31.5235C6.90329 28.1526 3.06913 24.2534 0.889316 22.0367C0.599416 21.7418 0.338777 21.4768 0.09432 21.2467C1.34137 25.7871 5.00258 32.8585 15.1213 35.1377C27.6817 37.9668 31.1589 39.0921 34.8175 44.5945ZM23.365 40.0777C31.7469 40.5459 34.5734 45.8346 35.3689 48.1012C32.2613 45.0545 30.3781 43.7917 22.4665 43.6254C16.1372 43.4923 10.5988 39.073 8.71042 36.8796C13.3222 38.8951 15.5662 39.642 23.365 40.0777ZM35.6922 50.4834C35.0311 49.1532 32.4888 46.5751 27.603 46.7726C26.281 46.8261 25.4168 46.896 24.7659 46.9486C23.3797 47.0606 22.9615 47.0945 21.151 46.7247C22.1342 47.9205 24.9209 50.14 28.2021 49.4514C32.1092 48.6316 32.6086 48.8897 35.277 50.2691C35.4098 50.3377 35.5479 50.4092 35.6922 50.4834Z" fill="#2B2B2A"/>
<defs>
<linearGradient id="paint0_linear_5301_89" x1="4.71123" y1="19.201" x2="24.4459" y2="49.3232" gradientUnits="userSpaceOnUse">
<stop stop-color="#FCF9F3"/>
<stop offset="0.51" stop-color="#FBF9F5"/>
<stop offset="1" stop-color="#F3F3F3"/>
</linearGradient>
</defs>
</svg>
